<?xml version="1.0" standalone="no"?><!DOCTYPE svg PUBLIC "-//W3C//DTD SVG 1.1//EN" "http://www.w3.org/Graphics/SVG/1.1/DTD/svg11.dtd"><svg t="1596771294650" class="icon" viewBox="0 0 1025 1024" version="1.1" xmlns="http://www.w3.org/2000/svg" p-id="2846" xmlns:xlink="http://www.w3.org/1999/xlink" width="200.1953125" height="200"><defs><style type="text/css"></style></defs><path d="M64 7.04h320a64 64 0 0 1 64 64v384H64a64 64 0 0 1-64-64v-320a64 64 0 0 1 64-64zM961.92 452.48h-384v-384a64 64 0 0 1 64-64h320a64 64 0 0 1 64 64v320a64 64 0 0 1-64 64zM64 571.52h384v384a64 64 0 0 1-64 64H64a64 64 0 0 1-64-64v-320a64 64 0 0 1 64-64zM961.92 1016.96h-320a64 64 0 0 1-64-64v-384h384a64 64 0 0 1 64 64v320a64 64 0 0 1-64 64z" p-id="2847"></path></svg>