<?xml version="1.0" standalone="no"?><!DOCTYPE svg PUBLIC "-//W3C//DTD SVG 1.1//EN" "http://www.w3.org/Graphics/SVG/1.1/DTD/svg11.dtd"><svg t="1596771419587" class="icon" viewBox="0 0 1024 1024" version="1.1" xmlns="http://www.w3.org/2000/svg" p-id="3526" xmlns:xlink="http://www.w3.org/1999/xlink" width="200" height="200"><defs><style type="text/css"></style></defs><path d="M492.8 209.28L164.48 475.52a33.28 33.28 0 0 0-11.52 24.96v471.68a32 32 0 0 0 32 32h174.08a32 32 0 0 0 32-32v-241.28a31.36 31.36 0 0 1 32-31.36h180.48a31.36 31.36 0 0 1 32 31.36v241.28a32 32 0 0 0 32 32h177.28a32 32 0 0 0 32-32V500.48a33.28 33.28 0 0 0-11.52-24.96L533.12 208.64a32.64 32.64 0 0 0-40.32 0.64z" p-id="3527"></path><path d="M992 492.16a28.8 28.8 0 0 1-19.84-7.04L512 119.68 51.84 485.76a32 32 0 0 1-44.8-5.76 32 32 0 0 1 5.12-44.8l462.72-366.08a64 64 0 0 1 80 0l456.96 366.08a32.64 32.64 0 0 1 5.12 45.44 32 32 0 0 1-24.96 11.52z" p-id="3528"></path></svg>