<?xml version="1.0" standalone="no"?><!DOCTYPE svg PUBLIC "-//W3C//DTD SVG 1.1//EN" "http://www.w3.org/Graphics/SVG/1.1/DTD/svg11.dtd"><svg t="1596771426653" class="icon" viewBox="0 0 1026 1024" version="1.1" xmlns="http://www.w3.org/2000/svg" p-id="3663" xmlns:xlink="http://www.w3.org/1999/xlink" width="200.390625" height="200"><defs><style type="text/css"></style></defs><path d="M844.63936 1024h-177.28a64 64 0 0 1-64-64v-241.28H422.87936V960a64 64 0 0 1-64 64H184.79936a64 64 0 0 1-64-64V487.68a64 64 0 0 1 23.68-49.28l328.32-266.24a64 64 0 0 1 80 0l332.16 266.88a64 64 0 0 1 23.68 49.92V960a64 64 0 0 1-64 64z m-421.76-369.28h180.48a64 64 0 0 1 64 64V960h177.28V488.32L514.39936 221.44 184.79936 487.68V960h174.08v-241.28a64 64 0 0 1 64-64z" p-id="3664"></path><path d="M31.83936 480a31.36 31.36 0 0 1-24.96-12.16 32 32 0 0 1 5.12-44.8L475.35936 56.96a64 64 0 0 1 79.36 0l457.6 366.08a32 32 0 0 1-40.32 49.92L514.39936 106.88 51.67936 472.96a28.8 28.8 0 0 1-19.84 7.04z" p-id="3665"></path></svg>