<?xml version="1.0" standalone="no"?><!DOCTYPE svg PUBLIC "-//W3C//DTD SVG 1.1//EN" "http://www.w3.org/Graphics/SVG/1.1/DTD/svg11.dtd"><svg t="1596771285268" class="icon" viewBox="0 0 1024 1024" version="1.1" xmlns="http://www.w3.org/2000/svg" p-id="2571" xmlns:xlink="http://www.w3.org/1999/xlink" width="200" height="200"><defs><style type="text/css"></style></defs><path d="M146.56 991.36h730.88a64 64 0 0 0 64-64v-192a128 128 0 0 0-113.28-128l-306.56-42.88-325.76 40.96a128 128 0 0 0-114.56 128v192a64 64 0 0 0 65.28 65.92z" fill="#FFFFFF" p-id="2572"></path><path d="M877.44 1024H146.56a98.56 98.56 0 0 1-97.92-97.92v-192A163.84 163.84 0 0 1 192 576l330.24-40.96 309.76 37.12a163.84 163.84 0 0 1 142.08 161.92v192A98.56 98.56 0 0 1 877.44 1024zM521.6 597.12l-320 40.32a98.56 98.56 0 0 0-85.76 97.28v192a32.64 32.64 0 0 0 32.64 32.64h728.96a32.64 32.64 0 0 0 32.64-32.64v-192A98.56 98.56 0 0 0 824.96 640z" p-id="2573"></path><path d="M509.44 260.48m-227.84 0a227.84 227.84 0 1 0 455.68 0 227.84 227.84 0 1 0-455.68 0Z" fill="#FFFFFF" p-id="2574"></path><path d="M512 520.96a260.48 260.48 0 1 1 256-260.48 260.48 260.48 0 0 1-256 260.48zM512 64a195.84 195.84 0 1 0 192 196.48A195.84 195.84 0 0 0 512 64z" p-id="2575"></path></svg>