<?xml version="1.0" standalone="no"?><!DOCTYPE svg PUBLIC "-//W3C//DTD SVG 1.1//EN" "http://www.w3.org/Graphics/SVG/1.1/DTD/svg11.dtd"><svg t="1596771303776" class="icon" viewBox="0 0 1024 1024" version="1.1" xmlns="http://www.w3.org/2000/svg" p-id="3117" xmlns:xlink="http://www.w3.org/1999/xlink" width="200" height="200"><defs><style type="text/css"></style></defs><path d="M929.92 881.28H277.76L110.72 102.4H33.28A32.64 32.64 0 0 1 0 69.76 32.64 32.64 0 0 1 33.28 37.12h128l169.6 778.88h599.04a32.64 32.64 0 0 1 32.64 32.64 32.64 32.64 0 0 1-32.64 32.64z" p-id="3118"></path><path d="M997.12 394.88l27.52-131.84H202.88l23.68 131.84h770.56zM646.4 699.52h126.72l34.56-238.72H646.4v238.72zM873.6 460.8l-33.92 238.72h94.72l49.28-238.72h-110.08zM353.28 460.8h-115.2l42.88 238.72h106.88L353.28 460.8zM581.12 460.8H419.84l33.92 238.72h127.36V460.8z" p-id="3119"></path><path d="M929.92 901.12m-85.76 0a85.76 85.76 0 1 0 171.52 0 85.76 85.76 0 1 0-171.52 0Z" p-id="3120"></path><path d="M326.4 901.12m-85.76 0a85.76 85.76 0 1 0 171.52 0 85.76 85.76 0 1 0-171.52 0Z" p-id="3121"></path></svg>